<svg width="22" height="22" viewBox="0 0 22 22" fill="none" xmlns="http://www.w3.org/2000/svg">
<path fill-rule="evenodd" clip-rule="evenodd" d="M11 0C4.9225 0 0 4.96249 0 11.0894C0 15.9964 3.14875 20.1411 7.52125 21.6104C8.07125 21.7074 8.2775 21.3748 8.2775 21.0837C8.2775 20.8203 8.26375 19.947 8.26375 19.0183C5.5 19.5312 4.785 18.339 4.565 17.7153C4.44125 17.3964 3.905 16.4123 3.4375 16.1489C3.0525 15.941 2.5025 15.4281 3.42375 15.4142C4.29 15.4004 4.90875 16.2182 5.115 16.5509C6.105 18.2281 7.68625 17.7569 8.31875 17.4658C8.415 16.7449 8.70375 16.2598 9.02 15.9826C6.5725 15.7053 4.015 14.7489 4.015 10.5072C4.015 9.30121 4.44125 8.30317 5.1425 7.52691C5.0325 7.24968 4.6475 6.11301 5.2525 4.58823C5.2525 4.58823 6.17375 4.29713 8.2775 5.72489C9.1575 5.47538 10.0925 5.35062 11.0275 5.35062C11.9625 5.35062 12.8975 5.47538 13.7775 5.72489C15.8813 4.28327 16.8025 4.58823 16.8025 4.58823C17.4075 6.11301 17.0225 7.24968 16.9125 7.52691C17.6138 8.30317 18.04 9.28735 18.04 10.5072C18.04 14.7627 15.4688 15.7053 13.0212 15.9826C13.42 16.3291 13.7638 16.9945 13.7638 18.0341C13.7638 19.5173 13.75 20.7094 13.75 21.0837C13.75 21.3748 13.9563 21.7213 14.5063 21.6104C16.6899 20.8672 18.5874 19.4523 19.9317 17.565C21.276 15.6776 21.9993 13.4129 22 11.0894C22 4.96249 17.0775 0 11 0Z" fill="#F8F8F8"/>
</svg>
