<svg width="19" height="20" viewBox="0 0 19 20" fill="none" xmlns="http://www.w3.org/2000/svg">
<path d="M0 1.43205C0 0.65777 0.624625 0.0302734 1.39531 0.0302734H17.6047C18.3754 0.0302734 19 0.65777 19 1.43205V18.1995C19 18.9738 18.3754 19.6013 17.6047 19.6013H1.39531C0.624625 19.6013 0 18.9738 0 18.1995V1.43205ZM5.86981 16.4137V7.57613H3.01863V16.4137H5.86981ZM4.44481 6.36885C5.43875 6.36885 6.05744 5.6912 6.05744 4.8423C6.03962 3.97506 5.43994 3.31576 4.46381 3.31576C3.48769 3.31576 2.85 3.97629 2.85 4.8423C2.85 5.6912 3.46869 6.36885 4.42581 6.36885H4.44481ZM10.2731 16.4137V11.4781C10.2731 11.2139 10.2921 10.9497 10.3681 10.7613C10.5735 10.2341 11.0426 9.68736 11.8311 9.68736C12.863 9.68736 13.2751 10.4971 13.2751 11.6861V16.4137H16.1262V11.3448C16.1262 8.6293 14.7203 7.36697 12.844 7.36697C11.3311 7.36697 10.6531 8.2232 10.2731 8.82623V8.85681H10.2541C10.2604 8.8466 10.2667 8.83641 10.2731 8.82623V7.57613H7.42306C7.45869 8.40546 7.42306 16.4137 7.42306 16.4137H10.2731Z" fill="#F8F8F8"/>
</svg>
