<svg width="360" height="382" viewBox="0 0 360 382" fill="none" xmlns="http://www.w3.org/2000/svg">
<g clip-path="url(#clip0_180_177)">
<mask id="mask0_180_177" style="mask-type:alpha" maskUnits="userSpaceOnUse" x="-2" y="1" width="420" height="424">
<path fill-rule="evenodd" clip-rule="evenodd" d="M190.845 340.221C262.932 352.699 321.8 282.974 297.413 213.999L293.676 203.431C267.623 129.748 330.159 55.1262 407.263 67.8912L417.891 69.6508L417.825 70.0518L407.196 68.2922C330.397 55.5776 268.11 129.904 294.059 203.296L297.796 213.864C322.287 283.13 263.169 353.153 190.776 340.621L165.513 336.249C113.382 327.226 67.7896 372.051 75.9287 424.326L75.528 424.39C67.3452 371.838 113.177 326.778 165.582 335.849L190.845 340.221ZM185.384 335.606C257.471 348.082 316.339 278.357 291.952 209.384L288.215 198.816C262.162 125.132 324.697 50.5104 401.802 63.2754L412.43 65.035L412.364 65.436L401.735 63.6764C324.936 50.9618 262.649 125.288 288.598 198.681L292.335 209.249C316.826 278.515 257.707 348.536 185.315 336.006L160.052 331.634C107.921 322.609 62.3284 367.434 70.4675 419.711L70.0668 419.773C61.8841 367.221 107.715 322.161 160.12 331.232L185.384 335.606ZM286.49 204.769C310.878 273.742 252.009 343.467 179.923 330.989L154.659 326.617C102.254 317.546 56.4228 362.606 64.6056 415.158L65.0062 415.096C56.8672 362.819 102.458 317.994 154.59 327.017L179.853 331.389C252.246 343.921 311.365 273.9 286.873 204.632L283.137 194.064C257.187 120.672 319.475 46.3461 396.274 59.0606L406.902 60.8202L406.969 60.4192L396.34 58.6596C319.236 45.8946 256.701 120.516 282.754 194.201L286.49 204.769ZM174.461 326.374C246.548 338.852 305.416 269.127 281.029 200.152L277.292 189.584C251.239 115.9 313.775 41.2788 390.879 54.0438L401.507 55.8034L401.441 56.2044L390.813 54.4448C314.014 41.7303 251.726 116.057 277.675 189.449L281.412 200.017C305.903 269.283 246.785 339.304 174.392 326.774L149.129 322.402C96.9965 313.379 51.406 358.202 59.545 410.479L59.1424 410.543C50.9616 357.991 96.7929 312.931 149.198 322.002L174.461 326.374ZM275.567 195.537C299.955 264.51 241.087 334.235 169 321.757L143.736 317.385C91.3317 308.314 45.5004 353.374 53.6811 405.926L54.0838 405.864C45.9448 353.587 91.5353 308.762 143.668 317.785L168.931 322.159C241.324 334.689 300.442 264.668 275.951 195.4L272.214 184.832C246.265 111.441 308.552 37.1145 385.351 49.829L395.98 51.5886L396.046 51.1876L385.418 49.428C308.313 36.663 245.778 111.285 271.831 184.969L275.567 195.537ZM163.538 317.142C235.626 329.62 294.494 259.895 270.106 190.92L266.37 180.352C240.317 106.669 302.852 32.0472 379.956 44.8122L390.585 46.5718L390.518 46.9728L379.89 45.2132C303.091 32.4987 240.803 106.825 266.753 180.217L270.489 190.785C294.981 260.051 235.862 330.075 163.47 317.542L138.207 313.17C86.0741 304.147 40.4835 348.972 48.6226 401.247L48.2199 401.311C40.0392 348.759 85.8704 303.699 138.275 312.77L163.538 317.142ZM264.645 186.305C289.033 255.278 230.164 325.003 158.077 312.527L132.814 308.155C80.4092 299.082 34.578 344.142 42.7587 396.694L43.1614 396.632C35.0223 344.355 80.6129 299.53 132.745 308.555L158.008 312.927C230.401 325.457 289.519 255.436 265.028 186.17L261.292 175.601C235.342 102.209 297.63 27.8829 374.429 40.5974L385.057 42.357L385.124 41.956L374.495 40.1964C297.391 27.4314 234.856 102.053 260.908 175.736L264.645 186.305ZM152.616 307.91C224.703 320.388 283.571 250.663 259.184 181.69L255.447 171.121C229.394 97.4371 291.93 22.8156 369.034 35.5806L379.662 37.3402L379.596 37.7412L368.967 35.9816C292.169 23.2671 229.881 97.5933 255.83 170.985L259.567 181.553C284.058 250.821 224.94 320.843 152.547 308.31L127.284 303.938C75.1517 294.915 29.5611 339.74 37.7002 392.017L37.2975 392.079C29.1167 339.527 74.948 294.467 127.353 303.538L152.616 307.91ZM253.723 177.073C278.11 246.048 219.242 315.773 147.155 303.295L121.892 298.923C69.4868 289.852 23.6555 334.912 31.8363 387.464L32.239 387.4C24.0999 335.123 69.6905 290.3 121.823 299.323L147.086 303.695C219.478 316.226 278.597 246.204 254.106 176.938L250.369 166.369C224.42 92.9775 286.707 18.6515 363.506 31.3658L374.135 33.1254L374.201 32.7244L363.573 30.9648C286.469 18.1998 223.933 92.8213 249.986 166.505L253.723 177.073ZM141.693 298.68C213.78 311.156 272.649 241.431 248.261 172.457L244.524 161.889C218.472 88.2055 281.007 13.584 358.111 26.3491L368.74 28.1087L368.673 28.5096L358.045 26.75C281.246 14.0357 218.958 88.3617 244.908 161.754L248.644 172.322C273.135 241.589 214.017 311.611 141.625 299.08L116.362 294.706C64.2293 285.683 18.6387 330.508 26.7778 382.785L26.3751 382.847C18.1943 330.295 64.0256 285.235 116.43 294.306L141.693 298.68ZM242.8 167.842C267.187 236.816 208.319 306.541 136.232 294.063L110.969 289.691C58.5644 280.62 12.7331 325.68 20.9139 378.232L21.3166 378.168C13.1775 325.893 58.7681 281.068 110.901 290.091L136.164 294.463C208.556 306.996 267.674 236.974 243.183 167.706L239.446 157.138C213.497 83.7459 275.785 9.41989 352.584 22.1342L363.212 23.8938L363.278 23.4929L352.65 21.7333C275.546 8.96823 213.011 83.5897 239.063 157.273L242.8 167.842ZM130.771 289.448C202.858 301.924 261.726 232.201 237.339 163.226L233.602 152.657C207.549 78.974 270.085 4.35243 347.189 17.1175L357.817 18.8771L357.751 19.278L347.122 17.5184C270.324 4.8041 208.036 79.1301 233.985 152.522L237.722 163.09C262.213 232.357 203.095 302.379 130.702 289.848L105.439 285.476C53.3068 276.451 7.71626 321.276 15.8553 373.553L15.4527 373.615C7.27192 321.063 53.1031 276.003 105.508 285.076L130.771 289.448ZM231.877 158.61C256.265 227.584 197.397 297.309 125.31 284.831L100.047 280.459C47.6419 271.388 1.81069 316.448 9.99144 369L10.3941 368.938C2.25503 316.661 47.8456 271.836 99.9782 280.859L125.241 285.233C197.633 297.764 256.752 227.742 232.261 158.475L228.524 147.906C202.575 74.5144 264.862 0.188298 341.661 12.9026L352.29 14.6622L352.356 14.2613L341.727 12.5017C264.623 -0.263366 202.088 74.3582 228.141 148.042L231.877 158.61ZM119.848 280.216C191.935 292.694 250.804 222.969 226.416 153.994L222.679 143.426C196.627 69.7424 259.162 -4.87916 336.266 7.88587L346.895 9.64547L346.828 10.0465L336.2 8.28685C259.401 -4.4275 197.113 69.8986 223.063 143.29L226.799 153.859C251.291 223.125 192.172 293.147 119.78 280.616L94.515 276.244C42.3844 267.221 -3.20616 312.044 4.9329 364.321L4.53023 364.385C-3.65051 311.833 42.1807 266.773 94.5855 275.844L119.848 280.216ZM220.955 149.378C245.342 218.352 186.474 288.077 114.387 275.601L89.1243 271.227C36.7195 262.156 -9.11174 307.216 -0.93099 359.768L-0.528333 359.706C-8.66739 307.429 36.9232 262.604 89.0538 271.627L114.319 276.001C186.711 288.532 245.829 218.51 221.338 149.243L217.601 138.675C191.652 65.2828 253.939 -9.04337 330.739 3.67106L341.367 5.43066L341.433 5.02968L330.805 3.27008C253.701 -9.49496 191.165 65.1266 217.218 138.81L220.955 149.378Z" fill="url(#paint0_linear_180_177)"/>
</mask>
<g mask="url(#mask0_180_177)">
<path d="M439.394 487.659L441.358 -64.0032L-62.7904 -65.7985L-64.7549 485.864L439.394 487.659Z" fill="url(#paint1_linear_180_177)"/>
</g>
</g>
<defs>
<linearGradient id="paint0_linear_180_177" x1="183.796" y1="1.37251" x2="182.444" y2="381.149" gradientUnits="userSpaceOnUse">
<stop stop-color="#613DC1"/>
<stop offset="1" stop-color="#0A2472"/>
</linearGradient>
<linearGradient id="paint1_linear_180_177" x1="183.796" y1="1.37251" x2="182.444" y2="381.149" gradientUnits="userSpaceOnUse">
<stop stop-color="#0077B6"/>
<stop offset="1" stop-color="#613DC1"/>
</linearGradient>
<clipPath id="clip0_180_177">
<rect width="379.779" height="368.89" fill="white" transform="translate(368.24 2.02933) rotate(90.204)"/>
</clipPath>
</defs>
</svg>
