<svg width="27" height="33" viewBox="0 0 27 33" fill="none" xmlns="http://www.w3.org/2000/svg">
<path d="M15.8942 0.000412071C12.2802 0.0120016 9.15095 0.209046 6.88813 2.92307L6.90913 0.00346259H0V33H7.32851L19.6684 19.1713V33H27V11.5892C26.8794 3.8634 23.4197 0.000412071 16.6212 0.000412071C16.376 0.000412071 16.1349 -0.000515089 15.8941 0.000412071H15.8942ZM13.9361 5.95954C15.9676 5.95954 17.4259 6.45845 18.3109 7.45677C18.6833 7.8595 18.9787 8.35407 19.1979 8.93905C19.1982 8.93992 19.1976 8.94064 19.1979 8.94215L11.1392 17.9197L7.3286 22.1689V10.7868C8.6112 8.58194 10.6569 5.95958 13.9361 5.95958V5.95954Z" fill="#F5F5F5"/>
</svg>
