<svg width="33" height="33" viewBox="0 0 33 33" fill="none" xmlns="http://www.w3.org/2000/svg">
<path d="M12.1646 21.2419C12.4096 21.0984 12.6774 20.9584 12.9679 20.8254C12.7225 21.1913 12.4597 21.5452 12.1804 21.8859C11.6904 22.4757 11.3089 22.7889 11.0691 22.8869C11.0492 22.8954 11.0287 22.9024 11.0079 22.9079C10.9904 22.8837 10.9752 22.8579 10.9624 22.8309C10.8644 22.6384 10.8679 22.4529 11.0324 22.2009C11.2179 21.9122 11.5906 21.5814 12.1646 21.2419ZM16.4609 18.3597C16.2526 18.4034 16.0461 18.4472 15.8379 18.4962C16.1464 17.8919 16.4382 17.2791 16.7129 16.6587C16.9893 17.1714 17.2871 17.6723 17.6054 18.1602C17.2256 18.2162 16.8424 18.2827 16.4609 18.3597ZM20.8796 20.0029C20.6078 19.7837 20.3533 19.5438 20.1184 19.2854C20.5174 19.2942 20.8779 19.3239 21.1894 19.3799C21.7441 19.4797 22.0049 19.6372 22.0959 19.7457C22.1245 19.776 22.1408 19.816 22.1414 19.8577C22.1352 19.9811 22.0992 20.1012 22.0364 20.2077C22.0011 20.2929 21.9444 20.3677 21.8719 20.4247C21.8357 20.4468 21.7932 20.4561 21.7511 20.4509C21.5936 20.4457 21.2996 20.3354 20.8796 20.0029ZM16.9859 11.6974C16.9159 12.1244 16.7969 12.6144 16.6359 13.1482C16.5765 12.9483 16.5246 12.7464 16.4801 12.5427C16.3471 11.9249 16.3279 11.4402 16.3996 11.1042C16.4661 10.7944 16.5921 10.6702 16.7426 10.6089C16.8233 10.5734 16.9088 10.5498 16.9964 10.5389C17.0191 10.5914 17.0454 10.6999 17.0524 10.8854C17.0611 11.0989 17.0401 11.3702 16.9859 11.6992V11.6974Z" fill="#212121"/>
<path fill-rule="evenodd" clip-rule="evenodd" d="M9.5 3H23.5C24.4283 3 25.3185 3.36875 25.9749 4.02513C26.6313 4.6815 27 5.57174 27 6.5V27.5C27 28.4283 26.6313 29.3185 25.9749 29.9749C25.3185 30.6313 24.4283 31 23.5 31H9.5C8.57174 31 7.6815 30.6313 7.02513 29.9749C6.36875 29.3185 6 28.4283 6 27.5V6.5C6 5.57174 6.36875 4.6815 7.02513 4.02513C7.6815 3.36875 8.57174 3 9.5 3V3ZM9.78875 23.419C9.94625 23.734 10.1913 24.0192 10.5553 24.1522C10.9175 24.2835 11.2763 24.2223 11.5703 24.0998C12.1268 23.8723 12.6815 23.3367 13.1908 22.7242C13.7735 22.0225 14.386 21.102 14.9775 20.0817C16.1194 19.7432 17.2888 19.5055 18.4722 19.3712C18.9972 20.0415 19.5397 20.619 20.0647 21.0338C20.5547 21.4188 21.12 21.739 21.6992 21.7635C22.0148 21.7791 22.3272 21.6946 22.5917 21.522C22.863 21.3452 23.0643 21.0898 23.2113 20.794C23.3688 20.4773 23.465 20.1465 23.4527 19.8087C23.4417 19.4758 23.3183 19.1563 23.1027 18.9022C22.7072 18.4297 22.0597 18.2022 21.4227 18.0885C20.65 17.9688 19.866 17.9395 19.0865 18.001C18.4282 17.0704 17.8543 16.083 17.3715 15.0505C17.809 13.8955 18.1362 12.8035 18.2815 11.911C18.3445 11.5295 18.3777 11.1655 18.3655 10.8365C18.3633 10.5099 18.2873 10.1881 18.1433 9.895C18.0602 9.73326 17.9422 9.59203 17.7979 9.48154C17.6535 9.37106 17.4863 9.2941 17.3085 9.25625C16.955 9.181 16.591 9.25625 16.2568 9.391C15.597 9.6535 15.2488 10.2135 15.1175 10.8312C14.9898 11.4262 15.0475 12.1193 15.198 12.8193C15.352 13.5298 15.6145 14.3033 15.9505 15.0855C15.413 16.4221 14.7923 17.7238 14.092 18.9828C13.1901 19.2665 12.3208 19.6449 11.4985 20.1115C10.851 20.4965 10.2752 20.9515 9.92875 21.4887C9.56125 22.0592 9.4475 22.7383 9.78875 23.419V23.419Z" fill="#212121"/>
</svg>
