<svg width="33" height="33" viewBox="0 0 33 33" fill="none" xmlns="http://www.w3.org/2000/svg">
<path d="M23.5562 20.0895L24.416 17.9151H26.8988L25.7206 14.6166L27.1942 10.89L31.4149 22.0966H28.3023L27.581 20.0895H23.5562Z" fill="#3D3D3D"/>
<path d="M20.9007 22.0966L25.4191 10.89H22.4235L19.3327 18.132L17.1347 10.8901H14.8322L12.4722 18.132L10.8079 14.832L9.30176 19.4722L10.8309 22.0966H13.7789L15.9116 15.6022L17.9449 22.0966H20.9007Z" fill="#5A0FC8"/>
<path d="M4.49339 18.2496H6.33847C6.89737 18.2496 7.39507 18.1872 7.83154 18.0624L8.30871 16.5923L9.64232 12.4837C9.53989 12.3216 9.42345 12.1687 9.29433 12.0269C8.60956 11.2689 7.60778 10.89 6.28876 10.89H1.6499V22.0966H4.49339V18.2496V18.2496ZM6.93563 13.4682C7.2031 13.7373 7.33681 14.0976 7.33681 14.5489C7.33681 15.0036 7.21921 15.3643 6.98399 15.6308C6.72617 15.927 6.25138 16.0751 5.55969 16.0751H4.49339V13.0645H5.56748C6.2122 13.0645 6.66821 13.1991 6.93563 13.4682V13.4682Z" fill="#3D3D3D"/>
</svg>
