<svg width="33" height="33" viewBox="0 0 33 33" fill="none" xmlns="http://www.w3.org/2000/svg">
<path d="M9.28125 14.1281C10.2438 10.2781 12.65 8.35315 16.5 8.35315C22.275 8.35315 22.9969 12.6844 25.8844 13.4063C27.8094 13.8875 29.4938 13.1656 30.9375 11.2406C29.975 15.0906 27.5688 17.0157 23.7188 17.0157C17.9438 17.0157 17.2219 12.6844 14.3344 11.9625C12.4094 11.4813 10.725 12.2031 9.28125 14.1281ZM2.0625 22.7907C3.025 18.9407 5.43125 17.0157 9.28125 17.0157C15.0562 17.0157 15.7781 21.3469 18.6656 22.0688C20.5906 22.55 22.275 21.8281 23.7188 19.9031C22.7562 23.7532 20.35 25.6782 16.5 25.6782C10.725 25.6782 10.0031 21.3469 7.11563 20.625C5.19063 20.1438 3.50625 20.8657 2.0625 22.7907Z" fill="#44A8B3"/>
</svg>
