<svg width="19" height="20" viewBox="0 0 19 20" fill="none" xmlns="http://www.w3.org/2000/svg">
<path d="M16.9643 0.0302734H2.03571C0.91183 0.0302734 0 0.969509 0 2.12717V17.5044C0 18.6621 0.91183 19.6013 2.03571 19.6013H16.9643C18.0882 19.6013 19 18.6621 19 17.5044V2.12717C19 0.969509 18.0882 0.0302734 16.9643 0.0302734ZM14.8904 6.96751C14.8989 7.08983 14.8989 7.21652 14.8989 7.33884C14.8989 11.1264 12.0998 15.4905 6.98504 15.4905C5.40737 15.4905 3.9442 15.0187 2.71429 14.2062C2.93906 14.2324 3.15536 14.2411 3.38438 14.2411C4.68638 14.2411 5.88237 13.7868 6.83661 13.0179C5.61518 12.9917 4.58884 12.1661 4.23683 11.0302C4.66518 11.0958 5.05112 11.0958 5.49219 10.9778C4.21987 10.7113 3.26562 9.55805 3.26562 8.16449V8.12954C3.6346 8.3436 4.06719 8.47466 4.52098 8.49213C4.13947 8.23073 3.82671 7.87611 3.61062 7.45991C3.39454 7.04371 3.28184 6.57889 3.28259 6.10691C3.28259 5.57395 3.4183 5.08467 3.66004 4.66092C5.02991 6.3996 7.08683 7.53542 9.39397 7.65774C8.99955 5.71374 10.4118 4.1367 12.1083 4.1367C12.9098 4.1367 13.6308 4.48181 14.1397 5.04099C14.7674 4.91867 15.3696 4.6784 15.904 4.35076C15.6962 5.01477 15.2594 5.57395 14.6826 5.9278C15.2424 5.86664 15.7853 5.705 16.2857 5.48221C15.9083 6.05449 15.4333 6.56124 14.8904 6.96751Z" fill="#F8F8F8"/>
</svg>
