<svg width="33" height="33" viewBox="0 0 33 33" fill="none" xmlns="http://www.w3.org/2000/svg">
<path d="M16.9375 5L27.875 11.187V23.5649L16.9375 29.7518L6 23.5649V11.187L16.9375 5Z" fill="white"/>
<path d="M25.9229 23.1357L17.3009 28.0182V24.2211L22.6747 21.2619L25.9229 23.1357ZM26.513 22.6032V12.4004L23.3598 14.2205V20.783L26.513 22.6032V22.6032ZM7.9193 23.1356L16.5414 28.0142V24.217L11.1676 21.2619L7.9193 23.1357V23.1356ZM7.3291 22.6032V12.4004L10.4824 14.2205V20.783L7.3291 22.6032V22.6032ZM7.69653 11.7401L16.5414 6.73763V10.4111L10.8746 13.5272L10.8291 13.552L7.69653 11.74V11.7401ZM26.1416 11.7401L17.3009 6.73755V10.411L22.9636 13.5312L23.0089 13.556L26.1416 11.7399V11.7401Z" fill="#8ED6FB"/>
<path d="M16.5413 23.3544L11.2417 20.4363V14.6622L16.5413 17.7206V23.3544V23.3544ZM17.3007 23.3544L22.6003 20.4405V14.6622L17.3007 17.7206V23.3544V23.3544ZM11.5967 13.9936L16.921 11.0673L22.2411 13.9936L16.921 17.0643L11.5967 13.9936V13.9936Z" fill="#1C78C0"/>
</svg>
