<svg width="39" height="48" viewBox="0 0 39 48" fill="none" xmlns="http://www.w3.org/2000/svg">
<path d="M22.9582 0.000599376C17.738 0.0174568 13.218 0.304067 9.94953 4.25175L9.97986 0.0050365H0V48H10.5856L28.41 27.8856V48H39V16.8571C38.8258 5.61949 33.8285 0.000599376 24.0084 0.000599376C23.6543 0.000599376 23.306 -0.00074922 22.9581 0.000599376H22.9582ZM20.1299 8.66842C23.0643 8.66842 25.1707 9.3941 26.449 10.8462C26.987 11.432 27.4137 12.1514 27.7303 13.0023C27.7307 13.0035 27.7298 13.0046 27.7303 13.0068L16.09 26.065L10.5858 32.2457V15.6899C12.4384 12.4828 15.3934 8.66848 20.1299 8.66848V8.66842Z" fill="#1C6DD0"/>
</svg>
