<svg width="33" height="33" viewBox="0 0 33 33" fill="none" xmlns="http://www.w3.org/2000/svg">
<path d="M18.833 14.1161C18.833 13.0399 18.0733 12.4458 16.739 12.4458H14.2846V15.9131H16.3543C17.9515 15.9082 18.833 15.2654 18.833 14.1161ZM27.769 13.4928C27.3064 11.988 27.2382 10.1424 27.2918 8.71553C27.3454 7.23024 26.1864 5.8667 24.628 5.8667H8.61615C7.05295 5.8667 5.89881 7.23511 5.95238 8.71553C6.00107 10.1424 5.93777 11.988 5.47514 13.4928C5.00764 15.0024 4.2236 15.9569 2.93311 16.0787V17.4665C4.21873 17.5883 5.00764 18.5428 5.47514 20.0524C5.93777 21.5572 6.00594 23.4028 5.95238 24.8297C5.89881 26.315 7.05782 27.6785 8.61615 27.6785H24.6232C26.1864 27.6785 27.3405 26.3101 27.2869 24.8297C27.2382 23.4028 27.3015 21.5572 27.7642 20.0524C28.2317 18.5428 29.0157 17.5883 30.3013 17.4665V16.0787C29.0206 15.9569 28.2317 15.0024 27.769 13.4928V13.4928ZM17.2113 22.575H12.4438V10.9702H17.187C19.2956 10.9702 20.6786 12.1098 20.6786 13.8629C20.6786 15.095 19.7485 16.1955 18.5603 16.3854V16.4488C20.177 16.6241 21.263 17.7441 21.263 19.2878C21.263 21.338 19.7388 22.575 17.2113 22.575ZM16.7244 17.2815H14.2846V21.0994H16.8315C18.497 21.0994 19.3784 20.4322 19.3784 19.1758C19.3784 17.9243 18.4726 17.2815 16.7244 17.2815V17.2815Z" fill="#8611F2"/>
</svg>
