<svg width="33" height="33" viewBox="0 0 33 33" fill="none" xmlns="http://www.w3.org/2000/svg">
<path d="M5.98145 25.3688L6.15676 25.1244L14.4274 9.43495L14.4449 9.26892L10.7994 2.42142C10.7327 2.2962 10.6283 2.19514 10.501 2.13253C10.3736 2.06992 10.2298 2.04893 10.0899 2.07254C9.94999 2.09614 9.82104 2.16314 9.7213 2.26406C9.62155 2.36498 9.55607 2.49471 9.5341 2.63489L5.98145 25.3688Z" fill="#FFC24A"/>
<path d="M6.08447 25.1831L6.21647 24.9253L14.4015 9.39876L10.7653 2.52444C10.7054 2.40489 10.6083 2.30799 10.4886 2.24825C10.3689 2.18852 10.2331 2.16916 10.1016 2.19309C9.96997 2.21701 9.84967 2.28293 9.75869 2.38097C9.66772 2.479 9.61095 2.60388 9.59691 2.73688L6.08447 25.1831Z" fill="#FFA712"/>
<path d="M17.1023 14.4478L19.8166 11.6635L17.1013 6.48556C17.0415 6.37412 16.9527 6.28098 16.8441 6.21605C16.7356 6.15111 16.6116 6.11682 16.4851 6.11682C16.3587 6.11682 16.2346 6.15111 16.1261 6.21605C16.0176 6.28098 15.9287 6.37412 15.8689 6.48556L14.418 9.25137V9.48753L17.1023 14.4478Z" fill="#F4BD62"/>
<path d="M17.0539 14.3343L19.6929 11.6325L17.0539 6.59995C17.0107 6.49102 16.9369 6.39691 16.8414 6.32896C16.746 6.26101 16.6329 6.22213 16.5158 6.21701C16.3987 6.21189 16.2827 6.24074 16.1816 6.30009C16.0806 6.35943 15.9989 6.44674 15.9463 6.55148L14.4881 9.36576L14.4448 9.50911L17.0539 14.3343Z" fill="#FFA50E"/>
<path d="M5.9834 25.3697L6.0628 25.2893L6.35052 25.1728L16.9311 14.6313L17.0652 14.2663L14.4262 9.23584L5.9834 25.3697V25.3697Z" fill="#F6820C"/>
<path d="M17.4407 30.6858L27.0189 25.345L24.282 8.50365C24.2624 8.38492 24.2104 8.2739 24.1319 8.18277C24.0533 8.09164 23.9511 8.02393 23.8366 7.98706C23.722 7.95019 23.5995 7.9456 23.4825 7.97378C23.3656 8.00197 23.2586 8.06184 23.1734 8.14683L5.98145 25.3687L15.503 30.6848C15.799 30.85 16.1323 30.9367 16.4713 30.9367C16.8103 30.9367 17.1436 30.85 17.4397 30.6848" fill="#FDE068"/>
<path d="M26.9312 25.3007L24.2169 8.5862C24.2121 8.47264 24.1738 8.36306 24.1067 8.27132C24.0396 8.17958 23.9468 8.10981 23.84 8.07084C23.7333 8.03186 23.6173 8.02544 23.5069 8.05238C23.3965 8.07931 23.2965 8.1384 23.2197 8.22216L6.08447 25.3368L15.5008 30.5962C15.7945 30.76 16.1252 30.846 16.4614 30.846C16.7977 30.846 17.1284 30.76 17.422 30.5962L26.9312 25.3007Z" fill="#FCCA3F"/>
<path d="M17.4407 30.525C17.1447 30.6902 16.8113 30.7769 16.4724 30.7769C16.1334 30.7769 15.8 30.6902 15.504 30.525L6.05982 25.2883L5.98145 25.3688L15.503 30.6849C15.799 30.8501 16.1323 30.9368 16.4713 30.9368C16.8103 30.9368 17.1436 30.8501 17.4397 30.6849L27.0189 25.3451L26.9952 25.2007L17.4407 30.525Z" fill="#EEAB37"/>
</svg>
