<svg width="33" height="33" viewBox="0 0 33 33" fill="none" xmlns="http://www.w3.org/2000/svg">
<path d="M0 0H33V33H0V0Z" fill="#F7DF1E"/>
<path d="M8.67689 27.5772L11.2022 26.0489C11.6894 26.9127 12.1326 27.6436 13.1957 27.6436C14.2147 27.6436 14.8573 27.245 14.8573 25.6945V15.1503H17.9584V25.7384C17.9584 28.9503 16.0756 30.4124 13.3286 30.4124C10.8478 30.4124 9.40779 29.1276 8.67676 27.577" fill="black"/>
<path d="M19.6427 27.2449L22.1677 25.783C22.8325 26.8685 23.6964 27.6659 25.2247 27.6659C26.5098 27.6659 27.3291 27.0234 27.3291 26.1373C27.3291 25.0741 26.4874 24.6975 25.0697 24.0774L24.2945 23.7448C22.0571 22.7926 20.573 21.5964 20.573 19.0711C20.573 16.7451 22.3451 14.9729 25.1141 14.9729C27.0856 14.9729 28.5033 15.6597 29.5222 17.454L27.1075 19.0047C26.5758 18.0522 26.0001 17.6757 25.114 17.6757C24.2057 17.6757 23.6298 18.2516 23.6298 19.0047C23.6298 19.935 24.2057 20.3118 25.5348 20.8878L26.31 21.22C28.9461 22.3498 30.4302 23.5016 30.4302 26.0931C30.4302 28.8845 28.2373 30.4128 25.2911 30.4128C22.4115 30.4128 20.5507 29.0394 19.6426 27.245" fill="black"/>
</svg>
