<svg width="33" height="33" viewBox="0 0 33 33" fill="none" xmlns="http://www.w3.org/2000/svg">
<path d="M10.484 20.1959L11.4279 23.2584C11.6399 23.9537 11.7284 24.4391 11.6929 24.7157C12.2091 23.3332 12.5698 21.8266 12.775 20.1959H13.9099C13.4219 22.8507 12.7783 24.7799 11.9794 25.9833C11.3569 26.9107 10.675 27.3744 9.93238 27.3744C9.73439 27.3744 9.4903 27.3146 9.20066 27.1958V26.5559C9.34218 26.5766 9.5082 26.5877 9.69915 26.5877C10.0456 26.5877 10.3248 26.4917 10.5372 26.3001C10.7915 26.0666 10.9189 25.8042 10.9189 25.5133C10.9189 25.3147 10.8196 24.9072 10.6219 24.2906L9.30681 20.1959H10.484H10.484ZM3.26037 18.3136L4.98914 23.5882H4.99982L6.7392 18.3136H8.16031C8.47148 20.9294 8.65528 23.3228 8.71169 25.4923H7.51357C7.47141 23.4643 7.35464 21.5573 7.16369 19.771H7.15325L5.32877 25.4923H4.41634L2.6029 19.771H2.59222C2.45768 21.4865 2.373 23.3935 2.3377 25.4923H1.24512C1.31572 22.9398 1.49242 20.5471 1.77521 18.3136H3.26043H3.26037Z" fill="#00758F"/>
<path d="M22.6271 18.2071C24.4867 18.2071 25.4165 19.3951 25.4165 21.7701C25.4165 23.0607 25.1369 24.0355 24.5781 24.6941C24.4774 24.8144 24.3661 24.9184 24.2489 25.0147L25.5649 25.6654L25.5637 25.6654L25.0964 26.4722L23.3826 25.4723C23.0986 25.5564 22.786 25.5985 22.4454 25.5985C21.5323 25.5985 20.8503 25.3323 20.3993 24.8008C19.9043 24.2128 19.657 23.2871 19.657 22.0252C19.657 20.7419 19.9361 19.7708 20.495 19.1114C21.0041 18.5082 21.7149 18.207 22.6271 18.207V18.2071ZM16.9324 18.2175C17.5971 18.2175 18.2014 18.3954 18.7458 18.7498L18.4693 19.3659C18.0035 19.1679 17.5442 19.0685 17.0914 19.0685C16.7239 19.0685 16.4407 19.1569 16.2434 19.3349C16.0449 19.5113 15.9221 19.7383 15.9221 20.015C15.9221 20.4402 16.225 20.809 16.7844 21.1205C16.9676 21.2207 17.1502 21.322 17.3322 21.4245L17.3739 21.448L17.3948 21.4597L17.4366 21.4832L17.4575 21.495L17.4992 21.5185C17.9226 21.7572 18.321 21.985 18.321 21.985C18.8803 22.382 19.1591 22.8053 19.1591 23.5025C19.1591 24.1113 18.936 24.6111 18.4912 25.0021C18.0462 25.3914 17.4483 25.5866 16.6995 25.5866C15.9992 25.5866 15.3205 25.3619 14.6631 24.9163L14.9706 24.2997C15.5364 24.5833 16.0483 24.7249 16.5081 24.7249C16.9392 24.7249 17.2767 24.6286 17.5209 24.4385C17.7646 24.247 17.9106 23.98 17.9106 23.6413C17.9106 23.2151 17.6141 22.8507 17.0701 22.545C16.8999 22.451 16.7301 22.356 16.5609 22.2601L16.5192 22.2365C16.4427 22.1933 16.3656 22.1495 16.2901 22.1066L16.2491 22.0833C15.8818 21.8744 15.5643 21.6919 15.5643 21.6919C15.0205 21.2941 14.7479 20.8674 14.7479 20.1642C14.7479 19.5827 14.9512 19.1127 15.3573 18.7551C15.7643 18.3967 16.2894 18.2175 16.9324 18.2175V18.2175ZM27.602 18.3136V24.6092H29.8608V25.4923H26.4564V18.3136H27.602ZM31.1159 24.612V24.7612H30.8676V25.4915H30.6777V24.7612H30.4197V24.612H31.116H31.1159ZM31.5745 24.612L31.8129 25.2115L32.032 24.612H32.3011V25.4915H32.1222V24.8221L31.8729 25.4915H31.7438L31.4941 24.8221H31.4845V25.4915H31.3152V24.612H31.5745H31.5745ZM22.5101 19.0899C21.4143 19.0899 20.866 19.9943 20.866 21.802C20.866 22.8374 21.0113 23.5882 21.3013 24.0562C21.5699 24.4893 21.9906 24.7054 22.5634 24.7054C23.6592 24.7054 24.2074 23.794 24.2074 21.9719C24.2074 20.951 24.0621 20.2066 23.7725 19.7384C23.5036 19.3062 23.0831 19.0899 22.5102 19.0899H22.5101Z" fill="#F29111"/>
<path d="M19.6376 6.67125C20.0011 5.778 21.2722 6.45446 21.7655 6.76649C21.8864 6.84455 22.0251 7.00948 22.1637 7.07045C22.3799 7.07894 22.596 7.09586 22.8126 7.1049C23.2189 7.20038 23.5995 7.27838 23.9196 7.46072C25.4074 8.33694 26.376 9.22983 27.2674 10.7047C27.4578 11.0171 27.553 11.3551 27.7086 11.6932C27.9245 12.1971 28.1672 12.726 28.4178 13.2025C28.53 13.4284 28.6168 13.6796 28.7727 13.8703C28.8335 13.9575 29.0063 13.9833 29.1096 14.0354C29.3952 14.1832 29.7412 14.2954 30.0098 14.4689C30.5114 14.7817 30.9963 15.1543 31.4372 15.5359C31.6015 15.6832 31.7135 15.8916 31.8701 16.0474V16.126C31.7311 16.1687 31.5926 16.2123 31.454 16.2473C31.1513 16.3251 30.8831 16.3075 30.5894 16.3853C30.4079 16.438 30.1825 16.5075 29.9922 16.5251L30.0098 16.5428C30.1218 16.8628 30.7276 17.123 31.0047 17.3144C31.3412 17.5573 31.6531 17.8518 31.9041 18.1901C31.9908 18.2764 32.0775 18.355 32.1637 18.4411C32.224 18.5283 32.241 18.6411 32.302 18.7189V18.7452C32.2344 18.7214 32.1858 18.6759 32.1398 18.6283L32.1123 18.5996C32.0849 18.5711 32.0571 18.5431 32.0255 18.52C31.8346 18.3896 31.645 18.2335 31.454 18.1123C31.1257 17.904 30.745 17.7831 30.4079 17.574C30.2173 17.4526 30.0356 17.3144 29.854 17.1755C29.6893 17.0537 29.5079 16.82 29.4044 16.6465C29.3435 16.5506 29.3351 16.438 29.2654 16.3687C29.2779 16.2529 29.384 16.2185 29.491 16.1902L29.5157 16.1837C29.5526 16.1741 29.5888 16.1645 29.6203 16.1519C30.07 15.9609 30.6062 15.8916 31.2985 15.909C31.2725 15.7351 30.8398 15.5185 30.7017 15.4144C30.4245 15.2146 30.131 15.0062 29.8369 14.8243C29.6811 14.7291 29.4125 14.6596 29.2399 14.5817C29.0063 14.4862 28.4871 14.3908 28.3577 14.209C28.1378 13.9223 27.9799 13.5804 27.8265 13.235L27.7848 13.1407C27.7709 13.1093 27.7569 13.0779 27.7429 13.0465C27.5617 12.6306 27.3365 12.1969 27.1548 11.7711C27.0598 11.5633 27.0162 11.381 26.9122 11.1817C26.2809 9.95894 25.3466 8.93521 24.2138 8.21525C23.8415 7.98099 23.4265 7.7642 22.9682 7.61686C22.7086 7.53843 22.3969 7.5818 22.1202 7.52162H21.9381C21.7827 7.47783 21.653 7.31308 21.5317 7.22622C21.2639 7.04436 20.9957 6.92226 20.6754 6.79251C20.5632 6.74046 20.2427 6.61927 20.1309 6.71468C20.0616 6.73209 20.0265 6.75824 20.0094 6.82775C19.9405 6.93148 20.0011 7.08773 20.044 7.18339C20.174 7.4606 20.3554 7.62535 20.5202 7.85961C20.6667 8.06737 20.8488 8.30163 20.9527 8.52752C21.1769 9.0131 21.2813 9.55108 21.489 10.0366C21.5661 10.2192 21.6879 10.4269 21.8001 10.5916C21.8951 10.7223 22.068 10.8168 22.1202 10.9823C22.2245 11.1558 21.9642 11.7282 21.904 11.91C21.6786 12.6214 21.7223 13.6102 21.9818 14.2268L21.9956 14.2593L22.0095 14.2922C22.1042 14.518 22.2056 14.7612 22.4576 14.8244C22.4749 14.8071 22.4576 14.8162 22.492 14.8071C22.5529 14.3299 22.5701 13.8703 22.7346 13.4968C22.8296 13.2634 23.0194 13.0983 23.1496 12.9077C23.2363 12.9597 23.2363 13.1162 23.288 13.2198C23.4006 13.4885 23.5215 13.7832 23.6602 14.0527C23.9451 14.6077 24.2656 15.1458 24.6288 15.6313C24.7504 15.8047 24.923 15.9956 25.0786 16.1518C25.1479 16.2123 25.2256 16.2472 25.2777 16.3251H25.2947V16.3513C25.0352 16.2556 24.8707 15.9871 24.6637 15.8304C24.274 15.5358 23.8074 15.0933 23.5388 14.6688C23.4265 14.425 23.305 14.1914 23.1839 13.9489V13.9314C23.1322 14.0007 23.1496 14.0695 23.1237 14.1743C23.0113 14.6077 23.0978 15.1021 22.7086 15.258C22.2673 15.4406 21.9382 14.9634 21.8001 14.7465C21.3587 14.0268 21.2378 12.8125 21.5491 11.8323C21.6182 11.6153 21.6276 11.3551 21.7483 11.1819C21.7223 11.0253 21.6016 10.9824 21.5317 10.8865C21.4107 10.7225 21.307 10.5314 21.2122 10.3492C21.0301 9.9934 20.9005 9.56824 20.7623 9.18664C20.7015 9.03081 20.6841 8.87437 20.6235 8.72685C20.5201 8.50168 20.3296 8.27579 20.1826 8.07659C19.9836 7.79028 19.404 7.23538 19.6376 6.67125V6.67125ZM22.4747 8.3706C22.4978 8.39377 22.5257 8.41403 22.5546 8.43399L22.5894 8.45789C22.6358 8.49004 22.6808 8.52388 22.7083 8.56998C22.752 8.63101 22.7601 8.69124 22.8124 8.75238C22.8124 8.96087 22.752 9.09947 22.63 9.18585C22.63 9.18585 22.6217 9.19495 22.6132 9.20344C22.544 9.06447 22.4834 8.92623 22.4138 8.78739C22.328 8.66619 22.2067 8.57005 22.1369 8.43156H22.1201V8.41415C22.2245 8.38837 22.328 8.3706 22.4747 8.3706Z" fill="#00758F"/>
</svg>
