<svg width="33" height="33" viewBox="0 0 33 33" fill="none" xmlns="http://www.w3.org/2000/svg">
<g clip-path="url(#clip0_229_118)">
<path d="M16.5 7.5625C7.24762 7.5625 0 11.4881 0 16.5C0 21.5119 7.24762 25.4375 16.5 25.4375C25.7524 25.4375 33 21.5119 33 16.5C33 11.4881 25.7524 7.5625 16.5 7.5625ZM14.7867 10.3125H16.588L16.016 13.0625H17.6247C18.645 13.0625 19.3297 13.2055 19.7203 13.5616C20.1011 13.9136 20.2166 14.4911 20.064 15.2776L19.349 18.5625H17.5175L18.1761 15.5251C18.2559 15.1085 18.2243 14.8184 18.084 14.6658C17.9451 14.5131 17.6385 14.4375 17.1793 14.4375H15.7369L14.8665 18.5625H13.0625L14.7867 10.3125V10.3125ZM6.875 13.0625H10.5407C12.2884 13.0625 13.3471 14.234 12.9333 15.9816C12.452 18.0125 11.165 18.5625 8.7945 18.5625H7.6615L7.30262 20.625H5.48075L6.875 13.0625ZM21.3125 13.0625H24.9783C26.7259 13.0625 27.7846 14.234 27.3708 15.9816C26.8895 18.0125 25.6011 18.5625 23.232 18.5625H22.099L21.7401 20.625H19.9183L21.3125 13.0625ZM8.43563 14.4375L7.91725 17.1875H9.09287C10.1104 17.1875 11.0564 17.072 11.2145 15.554C11.2736 14.9669 11.0289 14.4375 9.85325 14.4375H8.43563ZM22.8731 14.4375L22.3547 17.1875H23.5304C24.5479 17.1875 25.4939 17.072 25.652 15.554C25.7111 14.9669 25.4678 14.4375 24.2908 14.4375H22.8731V14.4375Z" fill="#474A8A"/>
</g>
<defs>
<clipPath id="clip0_229_118">
<rect width="33" height="33" fill="white"/>
</clipPath>
</defs>
</svg>
